<svg xmlns="http://www.w3.org/2000/svg" width="238" height="45" viewBox="0 0 238 45">
  <defs>
    <style>
      .cls-1 {
        fill: #191a19;
        fill-rule: evenodd;
      }
    </style>
  </defs>
  <path id="line_2.svg" class="cls-1" d="M528,408a1,1,0,0,0,0-2h-1a1,1,0,0,0,0,2h1Zm-4.993,0a1,1,0,1,0,0-2h-2a1,1,0,0,0,0,2h2Zm-5.989,0a1,1,0,0,0,0-2h-2a1,1,0,1,0,0,2h2ZM318.3,408c0.447,0,.82-0.008,1.108-0.017a1,1,0,0,0-.063-2c-0.449.014-1.116,0.025-1.944,0a0.988,0.988,0,0,0-1.023.977,1,1,0,0,0,.976,1.023C317.7,408,318.015,408,318.3,408Zm192.727-.006a1,1,0,0,0,0-2h-2a1,1,0,0,0,0,2h2Zm-7.985,0h2a1,1,0,0,0,0-2h-2A1,1,0,0,0,503.043,407.993Zm-3.993,0a1,1,0,0,0,0-2h-2a1,1,0,1,0,0,2h2Zm-5.989,0a1,1,0,0,0,0-2h-2a1,1,0,0,0,0,2h2Zm-5.989,0a1,1,0,0,0,0-2h-2a1,1,0,1,0,0,2h2Zm-5.989,0a1,1,0,0,0,0-2h-2a1,1,0,1,0,0,2h2Zm-5.989,0a1,1,0,0,0,0-2h-2a1,1,0,0,0,0,2h2Zm-5.99,0a1,1,0,1,0,0-2h-2a1,1,0,1,0,0,2h2Zm-7.985,0h2a1,1,0,0,0,0-2h-2A1,1,0,0,0,461.119,407.984Zm-3.993,0a1,1,0,0,0,0-2h-2a1,1,0,0,0,0,2h2Zm-5.989,0a1,1,0,0,0,0-2h-2a1,1,0,0,0,0,2h2Zm-5.989,0a1,1,0,0,0,0-2h-2a1,1,0,1,0,0,2h2Zm-5.989,0a1,1,0,0,0,0-2h-2a1,1,0,0,0,0,2h2Zm-5.989,0a1,1,0,0,0,0-2h-2a1,1,0,0,0,0,2h2Zm-5.989,0a1,1,0,0,0,0-2h-2a1,1,0,0,0,0,2h2Zm-7.985,0h2a1,1,0,0,0,0-2h-2A1,1,0,1,0,419.2,407.975Zm-3.994,0a1,1,0,1,0,0-2h-2a1,1,0,1,0,0,2h2Zm-5.989,0a1,1,0,1,0,0-2h-2a1,1,0,1,0,0,2h2Zm-5.988,0a1,1,0,0,0,0-2h-2a1,1,0,0,0,0,2h2Zm-5.99,0a1,1,0,1,0,0-2h-2a1,1,0,0,0,0,2h2Zm-5.989,0a1,1,0,1,0,0-2h-2a1,1,0,0,0,0,2h2Zm-5.989,0a1,1,0,0,0,0-2h-2a1,1,0,0,0,0,2h2Zm-7.985,0h2a1,1,0,0,0,0-2h-2A1,1,0,1,0,377.272,407.966Zm-3.993,0a1,1,0,1,0,0-2h-2a1,1,0,1,0,0,2h2Zm-5.99,0a1,1,0,1,0,0-2h-2a1,1,0,1,0,0,2h2Zm-5.989,0a1,1,0,1,0,0-2h-2a1,1,0,1,0,0,2h2Zm-5.989,0a1,1,0,0,0,0-2h-2a1,1,0,0,0,0,2h2Zm-5.989,0a1,1,0,0,0,0-2h-2a1,1,0,0,0,0,2h2Zm-5.989,0a1,1,0,0,0,0-2h-2a1,1,0,0,0,0,2h2Zm-7.985,0h2a1,1,0,0,0,0-2h-2A1,1,0,0,0,335.348,407.957Zm-3.993,0a1,1,0,0,0,0-2h-2a1,1,0,0,0,0,2h2Zm-5.989,0a1,1,0,0,0,0-2h-2a1,1,0,0,0,0,2h2Zm-11.977-.241a1,1,0,0,0,.114-1.993c-0.619-.072-1.266-0.16-1.932-0.271a1,1,0,1,0-.326,1.974c0.7,0.115,1.378.209,2.028,0.283A0.914,0.914,0,0,0,313.389,407.714Zm-5.882-1.137a1,1,0,0,0,.27-1.963q-0.92-.258-1.842-0.583a1,1,0,0,0-.667,1.886c0.634,0.224,1.3.434,1.967,0.622A0.986,0.986,0,0,0,307.507,406.577Zm-5.558-2.214a1,1,0,0,0,.479-1.878c-0.566-.308-1.113-0.639-1.626-0.984a1,1,0,1,0-1.116,1.66c0.565,0.38,1.166.743,1.787,1.081A1,1,0,0,0,301.949,404.363Zm-4.751-3.6a1,1,0,0,0,.727-1.687,15.243,15.243,0,0,1-1.2-1.434,1,1,0,1,0-1.612,1.183,17.155,17.155,0,0,0,1.356,1.624A1,1,0,0,0,297.2,400.767Zm-3.214-5a0.981,0.981,0,0,0,.376-0.075,1,1,0,0,0,.55-1.3,16.422,16.422,0,0,1-.6-1.777,1,1,0,0,0-1.927.536,18.532,18.532,0,0,0,.678,1.993A1,1,0,0,0,293.984,395.768Zm-1.318-5.808a0.831,0.831,0,0,0,.1,0,1,1,0,0,0,.9-1.093q-0.1-.978-0.174-1.97a1,1,0,1,0-1.994.159q0.079,1.01.178,2.007A1,1,0,0,0,292.666,389.96Zm-0.434-5.974h0.052a1,1,0,0,0,.947-1.05c-0.034-.664-0.063-1.326-0.089-1.982a0.983,0.983,0,0,0-1.037-.961,1,1,0,0,0-.961,1.038c0.026,0.664.055,1.335,0.09,2.008A1,1,0,0,0,292.232,383.986ZM292.03,378h0.019a1,1,0,0,0,.982-1.018q-0.018-1.016-.026-1.987a1,1,0,0,0-1-.992H292A1,1,0,0,0,291,375.01q0.009,0.981.027,2.007A1,1,0,0,0,292.03,378ZM292,372.009a1,1,0,0,0,1-.992c0-.7.014-1.368,0.025-1.988a1,1,0,0,0-2-.034c-0.011.624-.02,1.3-0.026,2a1,1,0,0,0,.992,1.009H292ZM292.135,366a1,1,0,0,0,1-.963c0.023-.633.039-0.982,0.04-0.985a1,1,0,0,0-2-.094s-0.016.357-.04,1.006A1,1,0,0,0,292.1,366h0.037Z" transform="translate(-291 -363)"/>
</svg>
