<svg xmlns="http://www.w3.org/2000/svg" width="238" height="45" viewBox="0 0 238 45">
  <defs>
    <style>
      .cls-1 {
        fill: #191a19;
        fill-rule: evenodd;
      }
    </style>
  </defs>
  <path id="line_1.svg" class="cls-1" d="M843,408a1,1,0,0,1,0-2h1a1,1,0,0,1,0,2h-1Zm4.993,0a1,1,0,1,1,0-2h2a1,1,0,1,1,0,2h-2Zm5.989,0a1,1,0,0,1,0-2h2a1,1,0,1,1,0,2h-2Zm198.717,0c-0.45,0-.82-0.008-1.11-0.017a1,1,0,1,1,.06-2c0.45,0.014,1.12.025,1.95,0a0.987,0.987,0,0,1,1.02.977,1,1,0,0,1-.97,1.023C1053.3,408,1052.99,408,1052.7,408Zm-192.728-.006a1,1,0,0,1,0-2h2a1,1,0,1,1,0,2h-2Zm7.985,0h-2a1,1,0,0,1,0-2h2A1,1,0,0,1,867.957,407.993Zm3.993,0a1,1,0,0,1,0-2h2a1,1,0,1,1,0,2h-2Zm5.989,0a1,1,0,0,1,0-2h2a1,1,0,0,1,0,2h-2Zm5.989,0a1,1,0,0,1,0-2h2a1,1,0,1,1,0,2h-2Zm5.989,0a1,1,0,0,1,0-2h2a1,1,0,1,1,0,2h-2Zm5.989,0a1,1,0,0,1,0-2h2a1,1,0,0,1,0,2h-2Zm5.99,0a1,1,0,1,1,0-2h2a1,1,0,1,1,0,2h-2Zm7.985,0h-2a1,1,0,0,1,0-2h2A1,1,0,0,1,909.881,407.984Zm3.993,0a1,1,0,0,1,0-2h2a1,1,0,0,1,0,2h-2Zm5.989,0a1,1,0,0,1,0-2h2a1,1,0,0,1,0,2h-2Zm5.989,0a1,1,0,0,1,0-2h2a1,1,0,1,1,0,2h-2Zm5.989,0a1,1,0,0,1,0-2h2a1,1,0,0,1,0,2h-2Zm5.989,0a1,1,0,0,1,0-2h2a1,1,0,0,1,0,2h-2Zm5.989,0a1,1,0,0,1,0-2h2a1,1,0,0,1,0,2h-2Zm7.985,0h-2a1,1,0,0,1,0-2h2A1,1,0,1,1,951.8,407.975Zm3.994,0a1,1,0,1,1,0-2h2a1,1,0,0,1,0,2h-2Zm5.989,0a1,1,0,1,1,0-2h2a1,1,0,1,1,0,2h-2Zm5.988,0a1,1,0,0,1,0-2h2a1,1,0,0,1,0,2h-2Zm5.99,0a1,1,0,1,1,0-2h2a1,1,0,0,1,0,2h-2Zm5.989,0a1,1,0,1,1,0-2h2a1,1,0,0,1,0,2h-2Zm5.989,0a1,1,0,0,1,0-2h2a1,1,0,0,1,0,2h-2Zm7.985,0h-2a1,1,0,0,1,0-2h2A1,1,0,1,1,993.728,407.966Zm3.993,0a1,1,0,1,1,0-2h2a1,1,0,1,1,0,2h-2Zm5.989,0a1,1,0,0,1,0-2h2a1,1,0,0,1,0,2h-2Zm5.99,0a1,1,0,0,1,0-2h2a1,1,0,0,1,0,2h-2Zm5.99,0a1,1,0,0,1,0-2h1.99a1,1,0,1,1,0,2h-1.99Zm5.99,0a1,1,0,1,1,0-2h1.99a1,1,0,1,1,0,2h-1.99Zm5.99,0a1,1,0,0,1,0-2h1.99a1,1,0,0,1,0,2h-1.99Zm7.98,0h-1.99a1,1,0,0,1,0-2h1.99A1,1,0,0,1,1035.65,407.957Zm4,0a1,1,0,1,1-.01-2h2a1,1,0,0,1,0,2h-1.99Zm5.98,0a1,1,0,0,1,0-2h2a1,1,0,0,1,0,2h-2Zm11.98-.241a1,1,0,0,1-.11-1.993c0.62-.072,1.26-0.16,1.93-0.271a1,1,0,0,1,.33,1.974c-0.7.115-1.38,0.209-2.03,0.283A0.966,0.966,0,0,1,1057.61,407.714Zm5.88-1.137a1,1,0,0,1-.27-1.963c0.62-.172,1.23-0.366,1.85-0.583a1,1,0,0,1,.66,1.886c-0.63.224-1.29,0.434-1.97,0.622A0.967,0.967,0,0,1,1063.49,406.577Zm5.56-2.214a1,1,0,0,1-.48-1.878c0.57-.308,1.11-0.639,1.63-0.984a1,1,0,1,1,1.11,1.66c-0.56.38-1.16,0.743-1.78,1.081A1.012,1.012,0,0,1,1069.05,404.363Zm4.75-3.6a1,1,0,0,1-.72-1.687,14.708,14.708,0,0,0,1.19-1.434,1,1,0,0,1,1.62,1.183,17.992,17.992,0,0,1-1.36,1.624A1,1,0,0,1,1073.8,400.767Zm3.22-5a0.972,0.972,0,0,1-.38-0.075,1,1,0,0,1-.55-1.3,15.017,15.017,0,0,0,.6-1.777,1,1,0,0,1,1.93.536,18.762,18.762,0,0,1-.68,1.993A1,1,0,0,1,1077.02,395.768Zm1.31-5.808a0.679,0.679,0,0,1-.09,0,1,1,0,0,1-.9-1.093c0.06-.652.12-1.309,0.17-1.97a1,1,0,0,1,2,.159q-0.09,1.01-.18,2.007A1,1,0,0,1,1078.33,389.96Zm0.44-5.974h-0.05a1,1,0,0,1-.95-1.05c0.03-.664.06-1.326,0.09-1.982a0.982,0.982,0,0,1,1.04-.961,1,1,0,0,1,.96,1.038c-0.03.664-.06,1.335-0.09,2.008A1,1,0,0,1,1078.77,383.986Zm0.2-5.987h-0.02a1,1,0,0,1-.98-1.018q0.015-1.016.03-1.987a1,1,0,0,1,1-.992h0a1,1,0,0,1,1,1.008q-0.015.981-.03,2.007A1,1,0,0,1,1078.97,378Zm0.03-5.99a1,1,0,0,1-1-.992c-0.01-.7-0.02-1.368-0.03-1.988a1,1,0,1,1,2-.034c0.01,0.624.02,1.3,0.03,2a1.006,1.006,0,0,1-1,1.009h0ZM1078.87,366a1,1,0,0,1-1-.963c-0.03-.633-0.04-0.982-0.04-0.985a1,1,0,1,1,1.99-.094s0.02,0.357.05,1.006a1.008,1.008,0,0,1-.97,1.036h-0.03Z" transform="translate(-842 -363)"/>
</svg>
